<?xml version="1.0" encoding="UTF-8"?><svg xmlns="http://www.w3.org/2000/svg" viewBox="0 0 1080 1080"><defs><style>.cls-1,.cls-2{opacity:.5;}.cls-1,.cls-2,.cls-3,.cls-4,.cls-5{stroke-width:0px;}.cls-2{mix-blend-mode:multiply;}.cls-6{isolation:isolate;}.cls-3{fill:#878786;}.cls-4{fill:#373736;}.cls-5{fill:#e41e13;}</style></defs><g class="cls-6"><g id="Capa_2"><polygon class="cls-1" points="849.16 372.73 848.98 372.89 849.14 372.71 849.16 372.73"/><path class="cls-3" d="m1049,551.58l-28.26,31.58-164.91-147.6c-3.79-3.39-9.53-3.39-13.32,0l-164.92,147.6-28.26-31.58c64.85-58.03,129.69-116.07,194.54-174.1.41-.37,2.48-2.17,5.63-2.04,3.16.12,5.1,2.09,5.47,2.48,15.35,13.74,30.71,27.49,46.06,41.23v-40.3h61.57v95.4l86.4,77.33Z"/><polygon class="cls-1" points="849.35 372.89 849.16 372.73 849.18 372.71 849.35 372.89"/><circle class="cls-3" cx="893.77" cy="529.4" r="19.39"/><circle class="cls-3" cx="817.32" cy="521.29" r="21.77"/><circle class="cls-3" cx="855.26" cy="601.37" r="12.35"/><path class="cls-3" d="m941.78,598.99c-3.91-8.76-9.64-19.39-18.04-30.43-5.96-7.83-12.02-14.21-17.51-19.33-2.34,4.72-7.18,7.68-12.39,7.58-4.93-.09-9.46-2.93-11.74-7.36-3.39,1.61-9.54,5.1-14.85,11.86-4.52,5.76-6.54,11.47-7.47,14.94-.94-3.73-3.02-9.92-7.89-16.12-4.3-5.47-9.19-8.96-13.07-11.11-1.84-1.01-3.44-1.74-4.66-2.24h-35.1c-2.59-.01-5.19-.02-7.77-.03-1.39.21-5.96,1.11-9.63,5.16-4.42,4.87-4.26,10.7-4.21,11.86v54.69c0,3.74,2.65,7.1,6.36,7.6,4.48.61,8.38-2.91,8.39-7.29.02-14.9.04-29.8.07-44.69,1.6-.02,3.22-.04,4.82-.05v124.7c0,2.33.94,4.43,2.47,5.96,1.66,1.66,4,2.62,6.57,2.45,4.46-.31,7.83-4.24,7.83-8.71v-75.02h8.12v75.32c0,2.33.95,4.43,2.47,5.96,1.5,1.51,3.58,2.45,5.88,2.47,2.73.02,6.51-3.28,8.52-8.73v-70.08c-6.24-5.69-12.48-11.38-18.72-17.06-2.39-2.2-2.51-5.72-.71-7.69,1.38-1.5,3.75-1.97,5.91-1.13,4.46,3.56,8.91,7.13,13.38,10.69v-41.93c1.86,1.2,4.21,3.09,6.34,5.89,3.01,3.96,4.14,7.87,4.6,10.04,1.83-.41,5.18-.87,8.97.32,8.09,2.55,11.12,10.43,11.53,11.54.41-.71,1.99-3.71,1.07-7.37-.56-2.21-1.79-3.68-2.46-4.37.19-1.35,1.06-6.27,5.34-9.51,1.56-1.17,3.13-1.8,4.34-2.14.05,6.95.1,13.91.14,20.86-5.79,6.52-11.58,13.05-17.37,19.57,2.75-.02,5.49-.04,8.24-.07,4.67-4.18,9.34-8.35,14.01-12.53,2.41-2.9,6.52-2.74,8.25-.7,1.58,1.85,1.35,5.44-1.28,7.58-8.26,7.67-16.51,15.34-24.77,23.02,3.5-.01,7-.02,10.5-.02.03,22.19.05,44.37.07,66.56,0,2.01.82,3.83,2.13,5.15,1.32,1.32,3.13,2.13,5.15,2.13,2.26,0,5.32-2.81,7.27-7.28,0-22.19.01-44.39.01-66.58,2.13,0,4.27-.01,6.4-.02-.01,22.2-.02,44.4-.03,66.6,0,2.01.82,3.83,2.13,5.15,1.31,1.32,3.12,2.13,5.14,2.13,2.31,0,5.43-2.79,7.27-7.28v-66.83l17.98.39c5.04.1,7.85-5.8,4.58-9.64-7.9-9.27-15.81-18.54-23.7-27.82v-19.72c1.23,1.15,2.45,2.37,3.68,3.64,8.34,8.69,14.16,17.94,18.26,26.48,2.13,2,5.41,2.16,7.69.43,2.37-1.8,3.03-5.18,1.49-7.79Zm-124.82.03c-1.58-1.76-3.18-3.51-4.77-5.27.77-9.9,1.52-19.82,2.28-29.73h5.05c.81,9.92,1.61,19.83,2.42,29.73-1.65,1.76-3.32,3.51-4.98,5.27Zm2.56-37.32h-5.2c-.76-2.53-1.51-5.06-2.28-7.6h9.89c-.81,2.53-1.61,5.06-2.42,7.6Z"/><path class="cls-3" d="m868.96,618.45c5.3-4.89,10.6-9.77,15.91-14.66,1.65-1.62,4.07-1.74,5.45-.64,1.66,1.33,1.85,4.49-.32,6.41-7.01,6.33-14.02,12.67-21.03,19v73.63c0,2.8-2.31,5.11-5.11,5.11s-5.12-2.29-5.12-5.11v-41.75h-6.44v41.75c0,2.82-2.28,5.11-5.11,5.11s-5.11-2.29-5.11-5.11v-73.96c-7.02-5.94-14.05-11.87-21.07-17.81-1.79-1.84-1.68-4.65-.11-6.09,1.23-1.12,3.26-1.29,4.91-.32,5.42,4.82,10.84,9.63,16.26,14.45h26.88Z"/><path class="cls-2" d="m710.68,603.64h0c-2,.01-3.99,0-5.99,0h5.99Z"/><path class="cls-5" d="m735.85,652.76c11.6-2.81,19.71-13.38,19.39-25.16-.3-11.44-8.45-21.36-19.75-23.91-8.27-.02-16.55-.03-24.81-.04-2,0-3.99-.01-5.99-.01h-16.02v93.54h22.02v-42.36c.79-.06,1.57-.13,2.37-.19l30.85,42.27h24.16l-32.21-44.14Zm-25.17-39.15c4.2-.04,8.4-.09,12.6-.14,6.03,3.24,9.78,9.57,9.68,16.38-.09,6.59-3.78,12.64-9.61,15.8-4.23-.01-8.44-.03-12.67-.05v-31.98Z"/><path class="cls-4" d="m430.06,547.65c9.85-2.45,16.74-11.67,16.47-21.96-.25-9.98-7.18-18.64-16.77-20.87-7.03-.02-14.06-.03-21.08-.04-1.7,0-3.39,0-5.09,0h-13.61v81.64h18.7v-36.96c.67-.05,1.34-.12,2.01-.17l26.2,36.89h20.52l-27.36-38.52Zm-21.38-34.17c3.56-.04,7.14-.08,10.7-.12,5.13,2.82,8.31,8.35,8.22,14.29-.08,5.75-3.21,11.03-8.16,13.79-3.59,0-7.17-.03-10.76-.04v-27.91Z"/><polygon class="cls-5" points="357.46 602.66 357.46 697.18 336.68 697.18 336.68 653.33 301.09 653.33 301.09 697.18 280.31 697.18 280.31 602.66 301.09 602.66 301.09 644.51 336.68 644.51 336.68 602.66 357.46 602.66"/><polygon class="cls-4" points="336.4 512.13 336.4 538.58 367.5 538.58 367.5 545.87 336.4 545.87 336.4 576.43 374.85 576.43 374.85 586.58 318.3 586.58 318.3 504.84 374.85 504.84 374.85 512.13 336.4 512.13"/><rect class="cls-4" x="202.13" y="504.84" width="18.1" height="81.32"/><path class="cls-4" d="m232.54,504.84h18.1c7.71,18.18,15.42,36.35,23.12,54.53,7.31-18.13,14.62-36.26,21.92-54.38h12.81c-10.87,27.06-21.73,54.11-32.6,81.17h-9.68c-11.23-27.11-22.45-54.21-33.68-81.32Z"/><path class="cls-5" d="m638.98,601.23h-11.57c-12.98,32.33-25.97,64.66-38.96,97h15.31c3.39-8.41,6.79-16.83,10.18-25.24h32.88c3.58,8.48,7.18,16.94,10.77,25.42h21.63c-13.41-32.39-26.82-64.78-40.24-97.17Zm-20.83,61.3c3.94-9.76,7.88-19.53,11.81-29.3,4.14,9.76,8.28,19.53,12.42,29.3h-24.23Z"/><path class="cls-4" d="m98.4,565.68c-.01.16-.01.38-.03.63v-.63h.03Z"/><path class="cls-4" d="m127.98,504.84v.06c-3.28-.01-6.57-.02-9.84-.03v-.03h9.84Z"/><path class="cls-4" d="m98.37,504.84v61.47c-.14,2.46-.94,8.82-5.96,13.85-1.16,1.15-2.46,2.17-3.88,3.04-3.09,1.87-6.72,2.95-10.6,2.95h-26.44c-.81,0-1.6-.05-2.39-.14-10.19-1.18-18.09-9.83-18.09-20.33v-60.84h18.09v61.58c3.35,8.06,11.32,13.29,20,13.13,8.64-.18,16.37-5.69,19.42-13.85v-60.87h9.84Z"/><path class="cls-4" d="m182.36,504.84v81.31h-9.84c-14.85-17.95-29.69-35.91-44.54-53.86v53.86h-9.84v-81.28c3.28.01,6.57.02,9.84.03,1.34,0,2.68.01,4.01.01,13.51,16.37,27.03,32.73,40.53,49.1v-49.17h9.84Z"/><path class="cls-4" d="m573.86,502.56c-23.86,0-43.21,19.27-43.21,43.04s19.35,43.03,43.21,43.03,43.21-19.27,43.21-43.03-19.35-43.04-43.21-43.04Zm-.07,78.98c-13.12,0-23.75-16.05-23.75-35.84s10.63-35.84,23.75-35.84,23.75,16.04,23.75,35.84-10.63,35.84-23.75,35.84Z"/><path class="cls-5" d="m422.99,600.96c-27.81,0-50.37,22.46-50.37,50.17s22.55,50.15,50.37,50.15,50.37-22.46,50.37-50.15-22.55-50.17-50.37-50.17Zm-.08,92.06c-15.29,0-27.68-18.71-27.68-41.78s12.39-41.78,27.68-41.78,27.68,18.7,27.68,41.78-12.39,41.78-27.68,41.78Z"/><path class="cls-5" d="m537.42,599.95c-3.43-.18-22.62-.86-38.15,14.09-15.38,14.81-15.55,33.78-15.52,37.16.03,2.98.57,24.47,17.94,38.44,13.04,10.49,27.7,10.43,36.16,10.39,19.16-.08,33.22-8.01,39.29-11.96.14-12.48.28-24.96.43-37.44-12.41-.01-24.82-.02-37.23-.04.02,3.27.05,6.55.07,9.82,4.94.01,9.87.02,14.81.04v24.81c-2.21,1.51-7.5,4.66-14.81,4.8-8.05.16-13.75-3.42-15.95-4.84-15.62-10.11-16.07-31.46-16.09-34.45-.03-5.21-.1-16.03,7.83-25.48,1.43-1.71,9.96-11.87,23.35-11.82,12.1.04,23.47,8.4,28.62,21.07,3.51-3.42,7.02-6.83,10.54-10.25-1.45-2.24-15.4-22.95-41.29-24.34Z"/><path class="cls-4" d="m507.74,523.92h10.25c-.4-1.45-4.74-16.04-19.01-20.93-10.44-3.58-24.29-1.31-31.18,8.4-5.75,8.1-3.89,17.49-3.7,18.37,1.75,8.16,7.55,12.83,9.82,14.66,4.98,4.02,6.46,2.58,15.45,7.9,6.51,3.86,10.69,6.42,12.6,11.46.35.93,2.36,6.22-.21,10.75-3.43,6.04-13.03,7.32-19.22,4.27-4.65-2.3-6.93-6.81-7.47-7.9-1.32-2.62-1.76-5.03-1.92-6.62h-12.6c-.02,2.56.31,7.63,3.52,12.49,3.96,5.99,9.9,8.03,14.41,9.5,9.75,3.19,25.61,4.18,35.24-5.23,1.16-1.13,4.03-4,5.55-8.65,3.09-9.41-1.92-18.08-2.35-18.79-4.18-6.97-11.67-10.6-25.77-17.44-5.03-2.44-9.72-4.38-11.82-9.25-1.98-4.6-.43-8.99-.28-9.4,1.8-4.88,6.05-6.86,6.98-7.26,4.84-2.1,9.3-.48,10.61,0,8.52,3.11,10.88,12.71,11.1,13.67Z"/></g></g></svg>